<svg width="35" height="35" viewBox="0 0 35 35" fill="none" xmlns="http://www.w3.org/2000/svg">
<path d="M10.0915 29.8766C8.93232 29.8766 7.69585 29.4129 6.84577 28.4856C5.06834 26.7081 5.06834 23.7715 6.84577 21.9168L19.9833 8.77924C22.379 6.38357 26.3203 6.38357 28.7159 8.77924C31.1116 11.1749 31.1116 15.1162 28.7159 17.5118L18.8241 27.4036L17.7422 26.3217L27.5567 16.5072C29.3342 14.7298 29.3342 11.7931 27.5567 9.93843C25.7793 8.161 22.8427 8.161 20.988 9.93843L7.85041 23.076C7.23217 23.6942 6.92305 24.467 6.92305 25.2398C6.92305 26.0899 7.23217 26.8627 7.85041 27.4036C9.08688 28.6401 11.0189 28.6401 12.2554 27.4036L22.0699 17.5891C22.6881 16.9709 22.6881 16.0435 22.0699 15.4253C21.4516 14.8071 20.5243 14.8071 19.906 15.4253L13.3373 21.9168L12.2554 20.8349L18.8241 14.2661C20.0606 13.0296 21.9926 13.0296 23.2291 14.2661C24.4656 15.5026 24.4656 17.4346 23.2291 18.671L13.3373 28.4856C12.4872 29.4129 11.2507 29.8766 10.0915 29.8766V29.8766Z" fill="#9B9793"/>
</svg>
