<svg width="25" height="25" viewBox="0 0 25 25" fill="none" xmlns="http://www.w3.org/2000/svg">
<path d="M10 9H11V17H10V9Z" fill="#383838"/>
<path d="M12 9H13V17H12V9Z" fill="#383838"/>
<path d="M14 9H15V17H14V9Z" fill="#383838"/>
<path d="M6 6H19V7H6V6Z" fill="#383838"/>
<path d="M15 6H14V5.5C14 5.2 13.8 5 13.5 5H11.5C11.2 5 11 5.2 11 5.5V6H10V5.5C10 4.65 10.65 4 11.5 4H13.5C14.35 4 15 4.65 15 5.5V6Z" fill="#383838"/>
<path d="M15.5 20H9.5C8.7 20 8 19.35 7.9 18.55L7 6.55L8 6.45L8.9 18.45C8.9 18.75 9.2 19 9.5 19H15.5C15.8 19 16.05 18.75 16.1 18.45L17 6.45L18 6.55L17.1 18.55C17 19.35 16.3 20 15.5 20Z" fill="#383838"/>
</svg>
