<svg width="50" height="50" viewBox="0 0 50 50" fill="none" xmlns="http://www.w3.org/2000/svg">
<path fill-rule="evenodd" clip-rule="evenodd" d="M16.7778 13.0455C16.5936 13.0455 16.417 13.1173 16.2867 13.2452C16.1565 13.373 16.0833 13.5464 16.0833 13.7273V38.2727C16.0833 38.4536 16.1565 38.627 16.2867 38.7548C16.417 38.8827 16.5936 38.9545 16.7778 38.9545H36.2222C36.4064 38.9545 36.583 38.8827 36.7133 38.7548C36.8435 38.627 36.9167 38.4536 36.9167 38.2727V21.2273H31.3611C30.6244 21.2273 29.9179 20.9399 29.3969 20.4285C28.876 19.917 28.5833 19.2233 28.5833 18.5V13.0455H16.7778ZM30.6667 13.0455V18.5C30.6667 18.6808 30.7398 18.8543 30.8701 18.9821C31.0003 19.11 31.1769 19.1818 31.3611 19.1818H36.9167C36.9105 19.0094 36.8381 18.8457 36.7139 18.7236L31.1333 13.2445C31.009 13.1226 30.8423 13.0515 30.6667 13.0455ZM14 13.7273C14 13.004 14.2927 12.3103 14.8136 11.7988C15.3345 11.2873 16.0411 11 16.7778 11H30.6417C31.3783 11.0002 32.0847 11.2876 32.6056 11.7991L38.1861 17.2782C38.7071 17.7895 38.9998 18.4831 39 19.2064V38.2727C39 38.996 38.7073 39.6897 38.1864 40.2012C37.6655 40.7127 36.9589 41 36.2222 41H16.7778C16.0411 41 15.3345 40.7127 14.8136 40.2012C14.2927 39.6897 14 38.996 14 38.2727V13.7273Z" fill="#383838"/>
</svg>
