<svg width="26" height="26" viewBox="0 0 26 26" fill="none" xmlns="http://www.w3.org/2000/svg">
<path d="M14.8787 5.74996C14.8787 4.78353 14.0104 4 12.9393 4C11.8683 4 11 4.78353 11 5.74996C11 6.7164 11.8683 7.49993 12.9393 7.49993C14.0104 7.49993 14.8787 6.7164 14.8787 5.74996ZM14.8787 13C14.8787 12.0336 14.0104 11.25 12.9393 11.25C11.8683 11.25 11 12.0336 11 13C11 13.9664 11.8683 14.75 12.9393 14.75C14.0104 14.75 14.8787 13.9664 14.8787 13ZM14.8787 20.25C14.8787 19.2836 14.0104 18.5001 12.9393 18.5001C11.8683 18.5001 11 19.2836 11 20.25C11 21.2165 11.8683 22 12.9393 22C14.0104 22 14.8787 21.2165 14.8787 20.25Z" fill="#383838"/>
</svg>
