<svg width="26" height="26" viewBox="0 0 26 26" fill="none" xmlns="http://www.w3.org/2000/svg">
<path d="M13.0519 21.84C8.16391 21.84 4.21191 17.888 4.21191 13C4.21191 8.112 8.16391 4.16 13.0519 4.16C17.9399 4.16 21.8919 8.112 21.8919 13C21.8919 17.888 17.8879 21.84 13.0519 21.84ZM13.0519 5.2C8.73591 5.2 5.25191 8.684 5.25191 13C5.25191 17.316 8.73591 20.8 13.0519 20.8C17.3679 20.8 20.8519 17.316 20.8519 13C20.8519 8.684 17.3159 5.2 13.0519 5.2Z" fill="#383838"/>
<path d="M7.95602 19.396L7.02002 18.98C7.28002 18.356 8.11202 17.992 8.99602 17.576C9.88002 17.16 10.972 16.692 10.972 16.12V15.34C10.66 15.08 10.14 14.508 10.036 13.676C9.77602 13.416 9.36002 12.948 9.36002 12.324C9.36002 11.96 9.51602 11.648 9.62002 11.44C9.51602 11.024 9.41202 10.244 9.41202 9.62001C9.41202 7.59201 10.816 6.24001 13.052 6.24001C13.676 6.24001 14.456 6.39601 14.872 6.86401C15.86 7.07201 16.692 8.21601 16.692 9.62001C16.692 10.504 16.536 11.232 16.432 11.596C16.536 11.752 16.64 12.012 16.64 12.324C16.64 13 16.276 13.468 15.964 13.676C15.86 14.508 15.392 15.028 15.08 15.288V16.12C15.08 16.588 16.016 16.952 16.848 17.264C17.836 17.628 18.876 18.044 19.24 18.876L18.252 19.24C18.096 18.824 17.264 18.512 16.484 18.252C15.34 17.836 14.04 17.368 14.04 16.172V14.82L14.3 14.664C14.3 14.664 14.924 14.248 14.924 13.416V13.052L15.236 12.896C15.288 12.896 15.548 12.74 15.548 12.324C15.548 12.22 15.444 12.064 15.392 12.012L15.184 11.804L15.288 11.544C15.288 11.544 15.548 10.712 15.548 9.67201C15.548 8.68401 14.976 7.95601 14.508 7.95601H14.196L14.04 7.69601C14.04 7.48801 13.676 7.28001 13.052 7.28001C11.44 7.28001 10.452 8.16401 10.452 9.62001C10.452 10.296 10.712 11.44 10.712 11.44L10.764 11.7L10.556 11.96C10.504 11.96 10.4 12.116 10.4 12.324C10.4 12.584 10.712 12.896 10.868 13L11.076 13.156V13.416C11.076 14.196 11.752 14.612 11.752 14.664L12.012 14.82V16.172C12.012 17.42 10.66 18.044 9.41202 18.564C8.84002 18.772 8.06002 19.136 7.95602 19.396Z" fill="#383838"/>
</svg>
