<svg width="22" height="22" viewBox="0 0 22 22" fill="none" xmlns="http://www.w3.org/2000/svg">
<path d="M10.1199 15.84C6.9519 15.84 4.3999 13.288 4.3999 10.12C4.3999 6.95199 6.9519 4.39999 10.1199 4.39999C13.2879 4.39999 15.8399 6.95199 15.8399 10.12C15.8399 13.288 13.2879 15.84 10.1199 15.84ZM10.1199 5.27999C7.4359 5.27999 5.2799 7.43599 5.2799 10.12C5.2799 12.804 7.4359 14.96 10.1199 14.96C12.8039 14.96 14.9599 12.804 14.9599 10.12C14.9599 7.43599 12.8039 5.27999 10.1199 5.27999Z" fill="currentColor"/>
<path d="M14.38 13.7575L18.3312 17.7087L17.709 18.3308L13.7578 14.3796L14.38 13.7575Z" fill="currentColor"/>
</svg>
