<svg width="35" height="35" viewBox="0 0 35 35" fill="none" xmlns="http://www.w3.org/2000/svg">
<path fill-rule="evenodd" clip-rule="evenodd" d="M7.48783 7.35968C7.6993 7.17326 7.96085 7.05303 8.24003 7.01392C8.5192 6.97481 8.80372 7.01853 9.05828 7.13967L29.3149 16.7939C29.5199 16.8914 29.6931 17.045 29.8144 17.2369C29.9356 17.4288 30 17.6512 30 17.8782C30 18.1052 29.9356 18.3276 29.8144 18.5195C29.6931 18.7115 29.5199 18.8651 29.3149 18.9626L9.05828 28.6168C8.82119 28.7297 8.55773 28.7755 8.29644 28.7494C8.03515 28.7233 7.78598 28.6263 7.57589 28.4687C7.36581 28.3112 7.20281 28.0992 7.10456 27.8557C7.00631 27.6122 6.97654 27.3464 7.01847 27.0872L8.5114 17.8782L7.01847 8.66926C6.97967 8.42909 7.00237 8.18302 7.08445 7.954C7.16653 7.72499 7.30531 7.52052 7.48783 7.35968V7.35968ZM9.97603 18.664L8.60988 27.0893L27.9361 17.8782L8.60988 8.66716L9.97603 17.0925H17.6889C17.8973 17.0925 18.0972 17.1753 18.2445 17.3226C18.3919 17.47 18.4747 17.6698 18.4747 17.8782C18.4747 18.0866 18.3919 18.2865 18.2445 18.4338C18.0972 18.5812 17.8973 18.664 17.6889 18.664H9.97603Z" fill="#9B9793"/>
</svg>
