<svg width="0" height="0" class="svg-sprite">
  <symbol
    fill="none"
    xmlns="http://www.w3.org/2000/svg"
    viewBox="0 0 35 35"
    id="svg-sprite-attach"
  >
    <path
      d="M10.0915 29.8766C8.93232 29.8766 7.69585 29.4129 6.84577 28.4856C5.06834 26.7081 5.06834 23.7715 6.84577 21.9168L19.9833 8.77924C22.379 6.38357 26.3203 6.38357 28.7159 8.77924C31.1116 11.1749 31.1116 15.1162 28.7159 17.5118L18.8241 27.4036L17.7422 26.3217L27.5567 16.5072C29.3342 14.7298 29.3342 11.7931 27.5567 9.93843C25.7793 8.161 22.8427 8.161 20.988 9.93843L7.85041 23.076C7.23217 23.6942 6.92305 24.467 6.92305 25.2398C6.92305 26.0899 7.23217 26.8627 7.85041 27.4036C9.08688 28.6401 11.0189 28.6401 12.2554 27.4036L22.0699 17.5891C22.6881 16.9709 22.6881 16.0435 22.0699 15.4253C21.4516 14.8071 20.5243 14.8071 19.906 15.4253L13.3373 21.9168L12.2554 20.8349L18.8241 14.2661C20.0606 13.0296 21.9926 13.0296 23.2291 14.2661C24.4656 15.5026 24.4656 17.4346 23.2291 18.671L13.3373 28.4856C12.4872 29.4129 11.2507 29.8766 10.0915 29.8766V29.8766Z"
      fill="currentColor"
    ></path>
  </symbol>
  <symbol
    fill="none"
    xmlns="http://www.w3.org/2000/svg"
    viewBox="0 0 22 22"
    id="svg-sprite-search"
  >
    <path
      d="M10.1199 15.84C6.9519 15.84 4.3999 13.288 4.3999 10.12C4.3999 6.95199 6.9519 4.39999 10.1199 4.39999C13.2879 4.39999 15.8399 6.95199 15.8399 10.12C15.8399 13.288 13.2879 15.84 10.1199 15.84ZM10.1199 5.27999C7.4359 5.27999 5.2799 7.43599 5.2799 10.12C5.2799 12.804 7.4359 14.96 10.1199 14.96C12.8039 14.96 14.9599 12.804 14.9599 10.12C14.9599 7.43599 12.8039 5.27999 10.1199 5.27999Z"
      fill="currentColor"
    ></path>
    <path
      d="M14.38 13.7575L18.3312 17.7087L17.709 18.3308L13.7578 14.3796L14.38 13.7575Z"
      fill="currentColor"
    ></path>
  </symbol>
  <symbol
    fill="none"
    xmlns="http://www.w3.org/2000/svg"
    viewBox="0 0 26 26"
    id="svg-sprite-profile"
  >
    <path
      d="M13.0519 21.84C8.16391 21.84 4.21191 17.888 4.21191 13C4.21191 8.112 8.16391 4.16 13.0519 4.16C17.9399 4.16 21.8919 8.112 21.8919 13C21.8919 17.888 17.8879 21.84 13.0519 21.84ZM13.0519 5.2C8.73591 5.2 5.25191 8.684 5.25191 13C5.25191 17.316 8.73591 20.8 13.0519 20.8C17.3679 20.8 20.8519 17.316 20.8519 13C20.8519 8.684 17.3159 5.2 13.0519 5.2Z"
      fill="currentColor"
    ></path>
    <path
      d="M7.95602 19.396L7.02002 18.98C7.28002 18.356 8.11202 17.992 8.99602 17.576C9.88002 17.16 10.972 16.692 10.972 16.12V15.34C10.66 15.08 10.14 14.508 10.036 13.676C9.77602 13.416 9.36002 12.948 9.36002 12.324C9.36002 11.96 9.51602 11.648 9.62002 11.44C9.51602 11.024 9.41202 10.244 9.41202 9.62001C9.41202 7.59201 10.816 6.24001 13.052 6.24001C13.676 6.24001 14.456 6.39601 14.872 6.86401C15.86 7.07201 16.692 8.21601 16.692 9.62001C16.692 10.504 16.536 11.232 16.432 11.596C16.536 11.752 16.64 12.012 16.64 12.324C16.64 13 16.276 13.468 15.964 13.676C15.86 14.508 15.392 15.028 15.08 15.288V16.12C15.08 16.588 16.016 16.952 16.848 17.264C17.836 17.628 18.876 18.044 19.24 18.876L18.252 19.24C18.096 18.824 17.264 18.512 16.484 18.252C15.34 17.836 14.04 17.368 14.04 16.172V14.82L14.3 14.664C14.3 14.664 14.924 14.248 14.924 13.416V13.052L15.236 12.896C15.288 12.896 15.548 12.74 15.548 12.324C15.548 12.22 15.444 12.064 15.392 12.012L15.184 11.804L15.288 11.544C15.288 11.544 15.548 10.712 15.548 9.67201C15.548 8.68401 14.976 7.95601 14.508 7.95601H14.196L14.04 7.69601C14.04 7.48801 13.676 7.28001 13.052 7.28001C11.44 7.28001 10.452 8.16401 10.452 9.62001C10.452 10.296 10.712 11.44 10.712 11.44L10.764 11.7L10.556 11.96C10.504 11.96 10.4 12.116 10.4 12.324C10.4 12.584 10.712 12.896 10.868 13L11.076 13.156V13.416C11.076 14.196 11.752 14.612 11.752 14.664L12.012 14.82V16.172C12.012 17.42 10.66 18.044 9.41202 18.564C8.84002 18.772 8.06002 19.136 7.95602 19.396Z"
      fill="currentColor"
    ></path>
  </symbol>
  <symbol
    fill="none"
    xmlns="http://www.w3.org/2000/svg"
    viewBox="0 0 16 9"
    id="svg-sprite-message-status"
  >
    <g clip-path="url(#clip0_18_2077)">
      <path
        d="M4.57596 6.7089L1.07746 3.34493L0.000976562 4.48864L4.66565 8.99656L11.618 1.03507L10.4518 0.00341034L4.57596 6.7089Z"
        fill="currentColor"
      ></path>
    </g>
    <g clip-path="url(#clip1_18_2077)">
      <path
        d="M8.17601 6.7089L7.63282 6.3L6.55633 7.4437L8.26569 8.99656L15.218 1.03507L14.0518 0.00341034L8.17601 6.7089Z"
        fill="currentColor"
      ></path>
    </g>
    <defs>
      <clipPath id="svg-sprite-clip0_18_2077">
        <rect width="11.6366" height="9" fill="white"></rect>
      </clipPath>
      <clipPath id="svg-sprite-clip1_18_2077">
        <rect
          width="11.6366"
          height="9"
          fill="white"
          transform="translate(3.6001)"
        ></rect>
      </clipPath>
    </defs>
  </symbol>
  <symbol
    fill="none"
    xmlns="http://www.w3.org/2000/svg"
    viewBox="0 0 25 25"
    id="svg-sprite-arrow-right"
  >
    <path
      d="M11.3499 17.35L10.6499 16.65L14.7999 12.5L10.6499 8.35002L11.3499 7.65002L16.1999 12.5L11.3499 17.35Z"
      fill="currentColor"
    ></path>
  </symbol>
  <symbol
    fill="none"
    xmlns="http://www.w3.org/2000/svg"
    viewBox="0 0 35 35"
    id="svg-sprite-send"
  >
    <path
      fill-rule="evenodd"
      clip-rule="evenodd"
      d="M7.48783 7.35968C7.6993 7.17326 7.96085 7.05303 8.24003 7.01392C8.5192 6.97481 8.80372 7.01853 9.05828 7.13967L29.3149 16.7939C29.5199 16.8914 29.6931 17.045 29.8144 17.2369C29.9356 17.4288 30 17.6512 30 17.8782C30 18.1052 29.9356 18.3276 29.8144 18.5195C29.6931 18.7115 29.5199 18.8651 29.3149 18.9626L9.05828 28.6168C8.82119 28.7297 8.55773 28.7755 8.29644 28.7494C8.03515 28.7233 7.78598 28.6263 7.57589 28.4687C7.36581 28.3112 7.20281 28.0992 7.10456 27.8557C7.00631 27.6122 6.97654 27.3464 7.01847 27.0872L8.5114 17.8782L7.01847 8.66926C6.97967 8.42909 7.00237 8.18302 7.08445 7.954C7.16653 7.72499 7.30531 7.52052 7.48783 7.35968V7.35968ZM9.97603 18.664L8.60988 27.0893L27.9361 17.8782L8.60988 8.66716L9.97603 17.0925H17.6889C17.8973 17.0925 18.0972 17.1753 18.2445 17.3226C18.3919 17.47 18.4747 17.6698 18.4747 17.8782C18.4747 18.0866 18.3919 18.2865 18.2445 18.4338C18.0972 18.5812 17.8973 18.664 17.6889 18.664H9.97603Z"
      fill="currentColor"
    ></path>
  </symbol>
  <symbol
    fill="none"
    xmlns="http://www.w3.org/2000/svg"
    viewBox="0 0 25 25"
    id="svg-sprite-delete"
  >
    <path d="M10 9H11V17H10V9Z" fill="currentColor"></path>
    <path d="M12 9H13V17H12V9Z" fill="currentColor"></path>
    <path d="M14 9H15V17H14V9Z" fill="currentColor"></path>
    <path d="M6 6H19V7H6V6Z" fill="currentColor"></path>
    <path
      d="M15 6H14V5.5C14 5.2 13.8 5 13.5 5H11.5C11.2 5 11 5.2 11 5.5V6H10V5.5C10 4.65 10.65 4 11.5 4H13.5C14.35 4 15 4.65 15 5.5V6Z"
      fill="currentColor"
    ></path>
    <path
      d="M15.5 20H9.5C8.7 20 8 19.35 7.9 18.55L7 6.55L8 6.45L8.9 18.45C8.9 18.75 9.2 19 9.5 19H15.5C15.8 19 16.05 18.75 16.1 18.45L17 6.45L18 6.55L17.1 18.55C17 19.35 16.3 20 15.5 20Z"
      fill="currentColor"
    ></path>
  </symbol>
  <symbol
    fill="none"
    xmlns="http://www.w3.org/2000/svg"
    viewBox="0 0 50 50"
    id="svg-sprite-location"
  >
    <path
      d="M25 42.5L24.2 41.6C23.7 41.1 12 27.3 12 19C12 11.8 17.8 6 25 6C32.2 6 38 11.8 38 19C38 27.3 26.3 41.1 25.8 41.7L25 42.5ZM25 8C18.9 8 14 12.9 14 19C14 25.4 22.4 36.2 25 39.4C27.6 36.2 36 25.4 36 19C36 12.9 31.1 8 25 8Z"
      fill="currentColor"
    ></path>
    <path
      d="M25 24C22.2 24 20 21.8 20 19C20 16.2 22.2 14 25 14C27.8 14 30 16.2 30 19C30 21.8 27.8 24 25 24ZM25 16C23.3 16 22 17.3 22 19C22 20.7 23.3 22 25 22C26.7 22 28 20.7 28 19C28 17.3 26.7 16 25 16Z"
      fill="currentColor"
    ></path>
  </symbol>
  <symbol
    fill="none"
    xmlns="http://www.w3.org/2000/svg"
    viewBox="0 0 11 8"
    id="svg-sprite-checkmark"
  >
    <path
      d="M4.06975 5.96497L0.957604 2.9725L0 3.9899L4.14953 8L10.3341 0.917726L9.29668 0L4.06975 5.96497Z"
      fill="currentColor"
    ></path>
  </symbol>
  <symbol
    fill="none"
    xmlns="http://www.w3.org/2000/svg"
    viewBox="0 0 50 50"
    id="svg-sprite-file"
  >
    <path
      fill-rule="evenodd"
      clip-rule="evenodd"
      d="M16.7778 13.0455C16.5936 13.0455 16.417 13.1173 16.2867 13.2452C16.1565 13.373 16.0833 13.5464 16.0833 13.7273V38.2727C16.0833 38.4536 16.1565 38.627 16.2867 38.7548C16.417 38.8827 16.5936 38.9545 16.7778 38.9545H36.2222C36.4064 38.9545 36.583 38.8827 36.7133 38.7548C36.8435 38.627 36.9167 38.4536 36.9167 38.2727V21.2273H31.3611C30.6244 21.2273 29.9179 20.9399 29.3969 20.4285C28.876 19.917 28.5833 19.2233 28.5833 18.5V13.0455H16.7778ZM30.6667 13.0455V18.5C30.6667 18.6808 30.7398 18.8543 30.8701 18.9821C31.0003 19.11 31.1769 19.1818 31.3611 19.1818H36.9167C36.9105 19.0094 36.8381 18.8457 36.7139 18.7236L31.1333 13.2445C31.009 13.1226 30.8423 13.0515 30.6667 13.0455ZM14 13.7273C14 13.004 14.2927 12.3103 14.8136 11.7988C15.3345 11.2873 16.0411 11 16.7778 11H30.6417C31.3783 11.0002 32.0847 11.2876 32.6056 11.7991L38.1861 17.2782C38.7071 17.7895 38.9998 18.4831 39 19.2064V38.2727C39 38.996 38.7073 39.6897 38.1864 40.2012C37.6655 40.7127 36.9589 41 36.2222 41H16.7778C16.0411 41 15.3345 40.7127 14.8136 40.2012C14.2927 39.6897 14 38.996 14 38.2727V13.7273Z"
      fill="currentColor"
    ></path>
  </symbol>
  <symbol
    fill="none"
    xmlns="http://www.w3.org/2000/svg"
    viewBox="0 0 26 26"
    id="svg-sprite-menu"
  >
    <path
      d="M14.8787 5.74996C14.8787 4.78353 14.0104 4 12.9393 4C11.8683 4 11 4.78353 11 5.74996C11 6.7164 11.8683 7.49993 12.9393 7.49993C14.0104 7.49993 14.8787 6.7164 14.8787 5.74996ZM14.8787 13C14.8787 12.0336 14.0104 11.25 12.9393 11.25C11.8683 11.25 11 12.0336 11 13C11 13.9664 11.8683 14.75 12.9393 14.75C14.0104 14.75 14.8787 13.9664 14.8787 13ZM14.8787 20.25C14.8787 19.2836 14.0104 18.5001 12.9393 18.5001C11.8683 18.5001 11 19.2836 11 20.25C11 21.2165 11.8683 22 12.9393 22C14.0104 22 14.8787 21.2165 14.8787 20.25Z"
      fill="currentColor"
    ></path>
  </symbol>
</svg>
